<svg width="204" height="80" viewBox="0 0 204 80" fill="none" xmlns="http://www.w3.org/2000/svg">
<path d="M22.4313 54H13.1513V17.648H0.79925V9.2H34.7193V17.648H22.4313V54ZM71.6928 36.08V9.2H80.7808V54.96H80.2688L49.1648 27.184V54H40.0768V8.24H40.5888L71.6928 36.08ZM111.454 54.832C106.889 54.832 102.814 53.8293 99.2303 51.824C95.6463 49.776 92.8516 46.9813 90.8463 43.44C88.8836 39.8987 87.9023 35.952 87.9023 31.6C87.9023 27.248 88.8836 23.3013 90.8463 19.76C92.8516 16.2187 95.6463 13.4453 99.2303 11.44C102.814 9.392 106.889 8.368 111.454 8.368C115.977 8.368 120.03 9.392 123.614 11.44C127.198 13.4453 129.993 16.2187 131.998 19.76C134.004 23.3013 135.006 27.248 135.006 31.6C135.006 35.952 134.004 39.8987 131.998 43.44C130.036 46.9813 127.262 49.776 123.678 51.824C120.094 53.8293 116.02 54.832 111.454 54.832ZM111.454 46.32C114.142 46.32 116.553 45.7013 118.686 44.464C120.862 43.184 122.548 41.4347 123.742 39.216C124.98 36.9547 125.598 34.416 125.598 31.6C125.598 28.784 124.98 26.2667 123.742 24.048C122.548 21.7867 120.884 20.0373 118.75 18.8C116.617 17.52 114.185 16.88 111.454 16.88C108.766 16.88 106.356 17.52 104.222 18.8C102.089 20.0373 100.404 21.7867 99.1663 24.048C97.9716 26.2667 97.3743 28.784 97.3743 31.6C97.3743 34.416 97.9716 36.9547 99.1663 39.216C100.404 41.4347 102.089 43.184 104.222 44.464C106.356 45.7013 108.766 46.32 111.454 46.32ZM157.744 54H148.464V17.648H136.112V9.2H170.032V17.648H157.744V54ZM200.797 9.2V17.328H184.477V27.376H198.877V35.184H184.477V45.872H200.797V54H175.389V9.2H200.797Z" fill="url(#paint0_linear_16366_28589)"/>
<circle cx="111.5" cy="31.5" r="8" fill="url(#paint1_linear_16366_28589)"/>
<path d="M42.9307 68.5078V76H41.7891V69.4854H37.7969V76H36.6553V68.5078H42.9307ZM51.7969 72.2402C51.7969 72.8555 51.7171 73.4046 51.5576 73.8877C51.3981 74.3708 51.168 74.7786 50.8672 75.1113C50.5664 75.444 50.2018 75.6992 49.7734 75.877C49.3496 76.0501 48.8688 76.1367 48.3311 76.1367C47.8298 76.1367 47.3695 76.0501 46.9502 75.877C46.5355 75.6992 46.1755 75.444 45.8701 75.1113C45.5693 74.7786 45.3346 74.3708 45.166 73.8877C45.002 73.4046 44.9199 72.8555 44.9199 72.2402C44.9199 71.4199 45.0589 70.7227 45.3369 70.1484C45.6149 69.5697 46.0114 69.1299 46.5264 68.8291C47.0459 68.5238 47.6634 68.3711 48.3789 68.3711C49.0625 68.3711 49.6595 68.5238 50.1699 68.8291C50.6849 69.1344 51.0837 69.5765 51.3662 70.1553C51.6533 70.7295 51.7969 71.4245 51.7969 72.2402ZM46.0957 72.2402C46.0957 72.8418 46.1755 73.3636 46.335 73.8057C46.4945 74.2477 46.7406 74.5895 47.0732 74.8311C47.4059 75.0726 47.8343 75.1934 48.3584 75.1934C48.8779 75.1934 49.304 75.0726 49.6367 74.8311C49.974 74.5895 50.2223 74.2477 50.3818 73.8057C50.5413 73.3636 50.6211 72.8418 50.6211 72.2402C50.6211 71.6432 50.5413 71.1283 50.3818 70.6953C50.2223 70.2578 49.9762 69.9206 49.6436 69.6836C49.3109 69.4466 48.8802 69.3281 48.3516 69.3281C47.5723 69.3281 47.0003 69.5856 46.6357 70.1006C46.2757 70.6156 46.0957 71.3288 46.0957 72.2402ZM61.668 68.5078V76H60.6426V71.1191C60.6426 70.9186 60.6471 70.7158 60.6562 70.5107C60.6699 70.3011 60.6859 70.0915 60.7041 69.8818H60.6631L58.1748 76H57.2109L54.7842 69.8818H54.7432C54.7568 70.0915 54.766 70.3011 54.7705 70.5107C54.7796 70.7158 54.7842 70.9323 54.7842 71.1602V76H53.752V68.5078H55.2764L57.6963 74.6328L60.1504 68.5078H61.668ZM70.4863 72.2402C70.4863 72.8555 70.4066 73.4046 70.2471 73.8877C70.0876 74.3708 69.8574 74.7786 69.5566 75.1113C69.2559 75.444 68.8913 75.6992 68.4629 75.877C68.0391 76.0501 67.5583 76.1367 67.0205 76.1367C66.5192 76.1367 66.0589 76.0501 65.6396 75.877C65.2249 75.6992 64.8649 75.444 64.5596 75.1113C64.2588 74.7786 64.0241 74.3708 63.8555 73.8877C63.6914 73.4046 63.6094 72.8555 63.6094 72.2402C63.6094 71.4199 63.7484 70.7227 64.0264 70.1484C64.3044 69.5697 64.7008 69.1299 65.2158 68.8291C65.7354 68.5238 66.3529 68.3711 67.0684 68.3711C67.752 68.3711 68.349 68.5238 68.8594 68.8291C69.3743 69.1344 69.7731 69.5765 70.0557 70.1553C70.3428 70.7295 70.4863 71.4245 70.4863 72.2402ZM64.7852 72.2402C64.7852 72.8418 64.8649 73.3636 65.0244 73.8057C65.1839 74.2477 65.43 74.5895 65.7627 74.8311C66.0954 75.0726 66.5238 75.1934 67.0479 75.1934C67.5674 75.1934 67.9935 75.0726 68.3262 74.8311C68.6634 74.5895 68.9118 74.2477 69.0713 73.8057C69.2308 73.3636 69.3105 72.8418 69.3105 72.2402C69.3105 71.6432 69.2308 71.1283 69.0713 70.6953C68.9118 70.2578 68.6657 69.9206 68.333 69.6836C68.0003 69.4466 67.5697 69.3281 67.041 69.3281C66.2617 69.3281 65.6898 69.5856 65.3252 70.1006C64.9652 70.6156 64.7852 71.3288 64.7852 72.2402ZM82.4902 68.5078V75.0498H83.5635V78.5771H82.4219V76H72.4482V68.5078H73.583V75.0361H76.8984V68.5078H78.04V75.0361H81.3623V68.5078H82.4902ZM86.1543 68.5078V71.6523H90.3311V68.5078H91.4658V76H90.3311V72.6162H86.1543V76H85.0127V68.5078H86.1543ZM94.9521 68.5078V73.2178C94.9521 73.3089 94.9499 73.4274 94.9453 73.5732C94.9408 73.7145 94.9339 73.8672 94.9248 74.0312C94.9157 74.1908 94.9066 74.3457 94.8975 74.4961C94.8929 74.6419 94.8861 74.7627 94.877 74.8584L98.9648 68.5078H100.359V76H99.2998V71.4062C99.2998 71.2604 99.3021 71.0736 99.3066 70.8457C99.3112 70.6178 99.318 70.3945 99.3271 70.1758C99.3363 69.9525 99.3431 69.7793 99.3477 69.6562L95.2734 76H93.8721V68.5078H94.9521ZM107.141 68.5078H108.392L105.158 72.124L108.651 76H107.318L103.914 72.1992V76H102.772V68.5078H103.914V72.1445L107.141 68.5078ZM118.748 69.4717H116.28V76H115.159V69.4717H112.726V68.5078H118.748V69.4717ZM123.752 68.3711C124.686 68.3711 125.431 68.6924 125.987 69.335C126.543 69.9775 126.821 70.9437 126.821 72.2334C126.821 73.0856 126.694 73.8011 126.438 74.3799C126.183 74.9587 125.823 75.3962 125.358 75.6924C124.898 75.9886 124.354 76.1367 123.725 76.1367C123.328 76.1367 122.979 76.0843 122.679 75.9795C122.378 75.8747 122.12 75.7334 121.906 75.5557C121.692 75.3779 121.514 75.1842 121.373 74.9746H121.291C121.305 75.1523 121.321 75.3665 121.339 75.6172C121.362 75.8678 121.373 76.0866 121.373 76.2734V79.3496H120.231V68.5078H121.168L121.318 69.6152H121.373C121.519 69.3874 121.697 69.18 121.906 68.9932C122.116 68.8018 122.371 68.6514 122.672 68.542C122.977 68.4281 123.337 68.3711 123.752 68.3711ZM123.554 69.3281C123.034 69.3281 122.615 69.4284 122.296 69.6289C121.981 69.8294 121.751 70.1302 121.605 70.5312C121.46 70.9277 121.382 71.4268 121.373 72.0283V72.2471C121.373 72.8805 121.441 73.416 121.578 73.8535C121.719 74.291 121.95 74.6237 122.269 74.8516C122.592 75.0794 123.025 75.1934 123.567 75.1934C124.032 75.1934 124.42 75.068 124.729 74.8174C125.039 74.5667 125.27 74.2181 125.42 73.7715C125.575 73.3203 125.652 72.8031 125.652 72.2197C125.652 71.3356 125.479 70.6338 125.133 70.1143C124.791 69.5902 124.265 69.3281 123.554 69.3281ZM131.688 68.3711C132.326 68.3711 132.873 68.5124 133.329 68.7949C133.785 69.0775 134.133 69.474 134.375 69.9844C134.617 70.4902 134.737 71.0827 134.737 71.7617V72.4658H129.562C129.576 73.3454 129.795 74.0153 130.219 74.4756C130.643 74.9359 131.24 75.166 132.01 75.166C132.484 75.166 132.903 75.1227 133.268 75.0361C133.632 74.9495 134.01 74.8219 134.402 74.6533V75.6514C134.024 75.82 133.648 75.943 133.274 76.0205C132.905 76.098 132.468 76.1367 131.962 76.1367C131.242 76.1367 130.613 75.9909 130.075 75.6992C129.542 75.403 129.127 74.9701 128.831 74.4004C128.535 73.8307 128.387 73.1335 128.387 72.3086C128.387 71.502 128.521 70.8047 128.79 70.2168C129.063 69.6243 129.446 69.1686 129.938 68.8496C130.435 68.5306 131.019 68.3711 131.688 68.3711ZM131.675 69.3008C131.069 69.3008 130.586 69.499 130.226 69.8955C129.866 70.292 129.651 70.8457 129.583 71.5566H133.548C133.543 71.11 133.473 70.7181 133.336 70.3809C133.204 70.0391 133.001 69.7747 132.728 69.5879C132.454 69.3965 132.103 69.3008 131.675 69.3008ZM137.807 68.5078V71.6523H141.983V68.5078H143.118V76H141.983V72.6162H137.807V76H136.665V68.5078H137.807ZM148.409 68.3711C149.047 68.3711 149.594 68.5124 150.05 68.7949C150.506 69.0775 150.854 69.474 151.096 69.9844C151.337 70.4902 151.458 71.0827 151.458 71.7617V72.4658H146.283C146.297 73.3454 146.516 74.0153 146.939 74.4756C147.363 74.9359 147.96 75.166 148.73 75.166C149.204 75.166 149.624 75.1227 149.988 75.0361C150.353 74.9495 150.731 74.8219 151.123 74.6533V75.6514C150.745 75.82 150.369 75.943 149.995 76.0205C149.626 76.098 149.188 76.1367 148.683 76.1367C147.963 76.1367 147.334 75.9909 146.796 75.6992C146.263 75.403 145.848 74.9701 145.552 74.4004C145.256 73.8307 145.107 73.1335 145.107 72.3086C145.107 71.502 145.242 70.8047 145.511 70.2168C145.784 69.6243 146.167 69.1686 146.659 68.8496C147.156 68.5306 147.739 68.3711 148.409 68.3711ZM148.396 69.3008C147.789 69.3008 147.306 69.499 146.946 69.8955C146.586 70.292 146.372 70.8457 146.304 71.5566H150.269C150.264 71.11 150.193 70.7181 150.057 70.3809C149.924 70.0391 149.722 69.7747 149.448 69.5879C149.175 69.3965 148.824 69.3008 148.396 69.3008ZM156.906 68.3711C157.84 68.3711 158.586 68.6924 159.142 69.335C159.698 69.9775 159.976 70.9437 159.976 72.2334C159.976 73.0856 159.848 73.8011 159.593 74.3799C159.338 74.9587 158.978 75.3962 158.513 75.6924C158.052 75.9886 157.508 76.1367 156.879 76.1367C156.482 76.1367 156.134 76.0843 155.833 75.9795C155.532 75.8747 155.275 75.7334 155.061 75.5557C154.846 75.3779 154.669 75.1842 154.527 74.9746H154.445C154.459 75.1523 154.475 75.3665 154.493 75.6172C154.516 75.8678 154.527 76.0866 154.527 76.2734V79.3496H153.386V68.5078H154.322L154.473 69.6152H154.527C154.673 69.3874 154.851 69.18 155.061 68.9932C155.27 68.8018 155.525 68.6514 155.826 68.542C156.132 68.4281 156.492 68.3711 156.906 68.3711ZM156.708 69.3281C156.188 69.3281 155.769 69.4284 155.45 69.6289C155.136 69.8294 154.906 70.1302 154.76 70.5312C154.614 70.9277 154.536 71.4268 154.527 72.0283V72.2471C154.527 72.8805 154.596 73.416 154.732 73.8535C154.874 74.291 155.104 74.6237 155.423 74.8516C155.746 75.0794 156.179 75.1934 156.722 75.1934C157.187 75.1934 157.574 75.068 157.884 74.8174C158.194 74.5667 158.424 74.2181 158.574 73.7715C158.729 73.3203 158.807 72.8031 158.807 72.2197C158.807 71.3356 158.633 70.6338 158.287 70.1143C157.945 69.5902 157.419 69.3281 156.708 69.3281ZM164.761 68.3848C165.654 68.3848 166.317 68.5853 166.75 68.9863C167.183 69.3874 167.399 70.0277 167.399 70.9072V76H166.572L166.354 74.8926H166.299C166.089 75.166 165.87 75.3962 165.643 75.583C165.415 75.7653 165.15 75.9043 164.85 76C164.553 76.0911 164.189 76.1367 163.756 76.1367C163.3 76.1367 162.895 76.057 162.539 75.8975C162.188 75.738 161.91 75.4964 161.705 75.1729C161.505 74.8493 161.404 74.4391 161.404 73.9424C161.404 73.195 161.701 72.6208 162.293 72.2197C162.885 71.8187 163.788 71.5999 165 71.5635L166.292 71.5088V71.0508C166.292 70.4036 166.153 69.9502 165.875 69.6904C165.597 69.4307 165.205 69.3008 164.699 69.3008C164.307 69.3008 163.934 69.3577 163.578 69.4717C163.223 69.5856 162.885 69.7201 162.566 69.875L162.218 69.0137C162.555 68.8405 162.942 68.6924 163.38 68.5693C163.817 68.4463 164.278 68.3848 164.761 68.3848ZM166.278 72.3086L165.137 72.3564C164.202 72.3929 163.544 72.5456 163.161 72.8145C162.778 73.0833 162.587 73.4639 162.587 73.9561C162.587 74.3844 162.717 74.7012 162.977 74.9062C163.236 75.1113 163.58 75.2139 164.009 75.2139C164.674 75.2139 165.219 75.0293 165.643 74.6602C166.066 74.291 166.278 73.7373 166.278 72.999V72.3086Z" fill="#85839B"/>
<defs>
<linearGradient id="paint0_linear_16366_28589" x1="0" y1="32" x2="204" y2="32" gradientUnits="userSpaceOnUse">
<stop offset="0.1154" stop-color="#ED534F"/>
<stop offset="0.644253" stop-color="#333058"/>
</linearGradient>
<linearGradient id="paint1_linear_16366_28589" x1="103.5" y1="31.5" x2="119.5" y2="31.5" gradientUnits="userSpaceOnUse">
<stop offset="0.1154" stop-color="#ED534F"/>
<stop offset="0.644253" stop-color="#333058"/>
</linearGradient>
</defs>
</svg>
